{"title":"Sex And The City 2 (2010) XviD Stumpie1971","uid":6522055,"size":1479142031,"categoryP":"video","categoryS":"movies","magnet":"?xt=urn:btih:6c2f7eb781365cc51bff6fdb34c9090867797fb3&amp;dn=Sex+And+The+City+2+%282010%29+XviD+Stumpie1971&amp;tr=udp%3A%2F%2Ftracker.openbittorrent.com%3A80&amp;tr=udp%3A%2F%2Fopen.demonii.com%3A1337&amp;tr=udp%3A%2F%2Ftracker.coppersurfer.tk%3A6969&amp;tr=udp%3A%2F%2Fexodus.desync.com%3A6969","seeders":1,"leechers":0,"uploader":"stumpie1971","files":-1,"time":1310032710,"description":"Sex and the City 2 (2010) DVDRip XviD-MAX\n\nFormat                           : AVI\nFormat/Info                      : Audio Video Interleave\nFormat profile                   : OpenDML\nFile size                        : 1.37 GiB\nDuration                         : 2h 20mn\nOverall bit rate                 : 1 390 Kbps\nWriting application              : VirtualDubMod 1.5.10.2 (build 2542/release)\nWriting library                  : VirtualDubMod build 2542/release\nOriginal source form             : MAX TORRENTZ\nCopyright                        : SIGISMUNT\n\nVideo\nID                               : 0\nFormat                           : MPEG-4 Visual\nFormat profile                   : E-mail\nFormat settings, BVOP            : Yes\nFormat settings, QPel            : No\nFormat settings, GMC             : No warppoints\nFormat settings, Matrix          : Default (H.263)\nMuxing mode                      : Packed bitstream\nCodec ID                         : XVID\nCodec ID/Hint                    : XviD\nDuration                         : 2h 20mn\nBit rate                         : 1 193 Kbps\nWidth                            : 720 pixels\nHeight                           : 288 pixels\nDisplay aspect ratio             : 2.500\nFrame rate                       : 25.000 fps\nResolution                       : 24 bits\nColorimetry                      : 4:2:0\nScan type                        : Progressive\nBits/(Pixel*Frame)               : 0.230\nStream size                      : 1.17 GiB (86%)\nWriting library                  : XviD 1.2.1 (UTC 2008-12-04)\n\nAudio\nID                               : 1\nFormat                           : AC-3\nFormat/Info                      : Audio Coding 3\nCodec ID                         : 2000\nDuration                         : 2h 20mn\nBit rate mode                    : Constant\nBit rate                         : 192 Kbps\nChannel(s)                       : 2 channels\nChannel positions                : L R\nSampling rate                    : 48.0 KHz\nStream size                      : 193 MiB (14%)\nAlignment                        : Aligned on interleaves\nInterleave, duration             : 64 ms (1.60 video frames)\nInterleave, preload duration     : 192 ms\n\nSource: KiNGDOM (perfect resynced-check included sample)\nHow To Get Your Maxspeed (uTorrent)\n\nTorrent Client - Preferences - Bandwidth - Number of connections - Set aprox. 500 for each \nTorrent Client - Preferences - BiTorrent - Protocol Encryption - Forced\nBandwidth Allocation - High (Set download/upload limit - Unlimited)\nStop Other Active Torrents - Start downloading and wait for connections\nEnjoy and Seed for at least 1:1 ratio. Don't forget to say thanks/leave reviews.\nAlso please spread the link where you found this torrent to your friends.\nDon't trust IMDb robot or bad ratings,always watch some trailers first.\nIgnore stupid comments and fake/mislabeled/CAM/TS/RAR uploads.\nIf you need translation subs visit some subtitles sites.\nRecommended movie player VLC PLAYER. ","torrent":{"xt":"urn:btih:6c2f7eb781365cc51bff6fdb34c9090867797fb3","amp;dn":"Sex+And+The+City+2+%282010%29+XviD+Stumpie1971","amp;tr":["udp%3A%2F%2Ftracker.openbittorrent.com%3A80","udp%3A%2F%2Fopen.demonii.com%3A1337","udp%3A%2F%2Ftracker.coppersurfer.tk%3A6969","udp%3A%2F%2Fexodus.desync.com%3A6969"],"infoHash":"6c2f7eb781365cc51bff6fdb34c9090867797fb3","infoHashBuffer":{"type":"Buffer","data":[108,47,126,183,129,54,92,197,27,255,111,219,52,201,9,8,103,121,127,179]},"announce":[],"urlList":[]}}